solid data__000001 created by POPLib
 facet normal -0.09064421665197 -0.99588333954713 -0.00000000000000
  outer loop
   vertex 0.74320863870850 2.65091561352939 14.21195256433855
   vertex -1.20089429712141 2.82786574484620 14.21195256433855
   vertex 0.74320863870850 2.65091561352939 12.33923256433854
  endloop
 endfacet
 facet normal -0.07491402129881 0.99718999664700 0.00000000000000
  outer loop
   vertex 1.23969684874618 24.17574369661955 12.33923256433854
   vertex -1.35483164637584 23.98082942391575 12.33923256433853
   vertex 1.23969684874618 24.17574369661955 14.21195256433855
  endloop
 endfacet
 facet normal -0.07491402129881 0.99718999664700 -0.00000000000000
  outer loop
   vertex 1.23969684874618 24.17574369661955 14.21195256433855
   vertex -1.35483164637584 23.98082942391575 12.33923256433853
   vertex -1.35483164637584 23.98082942391575 14.21195256433855
  endloop
 endfacet
 facet normal -0.31052561657844 0.95056501168967 0.00000000000000
  outer loop
   vertex -1.35483164637584 23.98082942391575 12.33923256433853
   vertex -3.79850166253619 23.18254405768540 12.33923256433853
   vertex -1.35483164637584 23.98082942391575 14.21195256433855
  endloop
 endfacet
 facet normal -0.31052561657844 0.95056501168967 0.00000000000000
  outer loop
   vertex -1.35483164637584 23.98082942391575 14.21195256433855
   vertex -3.79850166253619 23.18254405768540 12.33923256433853
   vertex -3.79850166253619 23.18254405768540 14.21195256433855
  endloop
 endfacet
 facet normal -0.52298786280904 0.85234012891242 0.00000000000000
  outer loop
   vertex -3.79850166253619 23.18254405768540 12.33923256433853
   vertex -5.90395908700068 21.89065524322685 12.33923256433853
   vertex -3.79850166253619 23.18254405768540 14.21195256433855
  endloop
 endfacet
 facet normal -0.52298786280904 0.85234012891242 0.00000000000000
  outer loop
   vertex -3.79850166253619 23.18254405768540 14.21195256433855
   vertex -5.90395908700068 21.89065524322685 12.33923256433853
   vertex -5.90395908700068 21.89065524322685 14.21195256433855
  endloop
 endfacet
 facet normal -0.69830936173434 0.71579608500897 0.00000000000000
  outer loop
   vertex -5.90395908700068 21.89065524322685 12.33923256433853
   vertex -7.56142886573782 20.27367704577081 12.33923256433854
   vertex -5.90395908700068 21.89065524322685 14.21195256433855
  endloop
 endfacet
 facet normal -0.69830936173434 0.71579608500897 0.00000000000000
  outer loop
   vertex -5.90395908700068 21.89065524322685 14.21195256433855
   vertex -7.56142886573782 20.27367704577081 12.33923256433854
   vertex -7.56142886573782 20.27367704577081 14.21195256433855
  endloop
 endfacet
 facet normal -0.82615636120975 0.56344091689605 0.00000000000000
  outer loop
   vertex -7.56142886573782 20.27367704577081 12.33923256433854
   vertex -8.67007384110755 18.64810447683026 12.33923256433854
   vertex -7.56142886573782 20.27367704577081 14.21195256433855
  endloop
 endfacet
 facet normal -0.82615636120975 0.56344091689605 0.00000000000000
  outer loop
   vertex -7.56142886573782 20.27367704577081 14.21195256433855
   vertex -8.67007384110755 18.64810447683026 12.33923256433854
   vertex -8.67007384110755 18.64810447683026 14.21195256433855
  endloop
 endfacet
 facet normal -0.91709476252025 0.39866928218502 0.00000000000000
  outer loop
   vertex -8.67007384110755 18.64810447683026 12.33923256433854
   vertex -9.50149604274748 16.73550929922346 12.33923256433854
   vertex -8.67007384110755 18.64810447683026 14.21195256433855
  endloop
 endfacet
 facet normal -0.91709476252025 0.39866928218502 0.00000000000000
  outer loop
   vertex -8.67007384110755 18.64810447683026 14.21195256433855
   vertex -9.50149604274748 16.73550929922346 12.33923256433854
   vertex -9.50149604274748 16.73550929922346 14.21195256433855
  endloop
 endfacet
 facet normal -0.97760296234014 0.21045771077294 0.00000000000000
  outer loop
   vertex -9.50149604274748 16.73550929922346 12.33923256433854
   vertex -9.95865137829648 14.61196434265755 12.33923256433854
   vertex -9.50149604274748 16.73550929922346 14.21195256433855
  endloop
 endfacet
 facet normal -0.97760296234014 0.21045771077294 0.00000000000000
  outer loop
   vertex -9.50149604274748 16.73550929922346 14.21195256433855
   vertex -9.95865137829648 14.61196434265755 12.33923256433854
   vertex -9.95865137829648 14.61196434265755 14.21195256433855
  endloop
 endfacet
 facet normal -0.99996939609294 0.00782348244201 0.00000000000000
  outer loop
   vertex -9.95865137829648 14.61196434265755 12.33923256433854
   vertex -9.97600615318618 12.39373941604382 12.33923256433854
   vertex -9.95865137829648 14.61196434265755 14.21195256433855
  endloop
 endfacet
 facet normal -0.99996939609294 0.00782348244201 0.00000000000000
  outer loop
   vertex -9.95865137829648 14.61196434265755 14.21195256433855
   vertex -9.97600615318618 12.39373941604382 12.33923256433854
   vertex -9.97600615318618 12.39373941604382 14.21195256433855
  endloop
 endfacet
 facet normal -0.98035408031048 -0.19724572801103 0.00000000000000
  outer loop
   vertex -9.97600615318618 12.39373941604382 12.33923256433854
   vertex -9.53845737194181 10.21902700349510 12.33923256433854
   vertex -9.97600615318618 12.39373941604382 14.21195256433855
  endloop
 endfacet
 facet normal -0.98035408031048 -0.19724572801103 0.00000000000000
  outer loop
   vertex -9.97600615318618 12.39373941604382 14.21195256433855
   vertex -9.53845737194181 10.21902700349510 12.33923256433854
   vertex -9.53845737194181 10.21902700349510 14.21195256433855
  endloop
 endfacet
 facet normal -0.91997985990181 -0.39196563290044 0.00000000000000
  outer loop
   vertex -9.53845737194181 10.21902700349510 12.33923256433854
   vertex -8.68703130741718 8.22065070258840 12.33923256433854
   vertex -9.53845737194181 10.21902700349510 14.21195256433855
  endloop
 endfacet
 facet normal -0.91997985990181 -0.39196563290044 -0.00000000000000
  outer loop
   vertex -9.53845737194181 10.21902700349510 14.21195256433855
   vertex -8.68703130741718 8.22065070258840 12.33923256433854
   vertex -8.68703130741718 8.22065070258840 14.21195256433855
  endloop
 endfacet
 facet normal -0.82488959119866 -0.56529387254074 0.00000000000000
  outer loop
   vertex -8.68703130741718 8.22065070258840 12.33923256433854
   vertex -7.50811460356323 6.50034881159405 12.33923256433854
   vertex -8.68703130741718 8.22065070258840 14.21195256433855
  endloop
 endfacet
 facet normal -0.82488959119866 -0.56529387254074 0.00000000000000
  outer loop
   vertex -8.68703130741718 8.22065070258840 14.21195256433855
   vertex -7.50811460356323 6.50034881159405 12.33923256433854
   vertex -7.50811460356323 6.50034881159405 14.21195256433855
  endloop
 endfacet
 facet normal -0.70436441162488 -0.70983855603675 0.00000000000000
  outer loop
   vertex -7.50811460356323 6.50034881159405 12.33923256433854
   vertex -6.11141279353292 5.11441810908306 12.33923256433854
   vertex -7.50811460356323 6.50034881159405 14.21195256433855
  endloop
 endfacet
 facet normal -0.70436441162488 -0.70983855603675 0.00000000000000
  outer loop
   vertex -7.50811460356323 6.50034881159405 14.21195256433855
   vertex -6.11141279353292 5.11441810908306 12.33923256433854
   vertex -6.11141279353292 5.11441810908306 14.21195256433855
  endloop
 endfacet
 facet normal -0.50062628899475 -0.86566351359367 0.00000000000000
  outer loop
   vertex -6.11141279353292 5.11441810908306 12.33923256433854
   vertex -3.03609846193264 3.33591736699903 12.33923256433856
   vertex -6.11141279353292 5.11441810908306 14.21195256433855
  endloop
 endfacet
 facet normal -0.50062628899475 -0.86566351359367 0.00000000000000
  outer loop
   vertex -6.11141279353292 5.11441810908306 14.21195256433855
   vertex -3.03609846193264 3.33591736699903 12.33923256433856
   vertex -3.03609846193264 3.33591736699903 14.21195256433855
  endloop
 endfacet
 facet normal -0.26680164702022 -0.96375146233212 0.00000000000000
  outer loop
   vertex -3.03609846193264 3.33591736699903 12.33923256433856
   vertex -1.20089429712141 2.82786574484620 12.33923256433856
   vertex -3.03609846193264 3.33591736699903 14.21195256433855
  endloop
 endfacet
 facet normal -0.26680164702022 -0.96375146233212 -0.00000000000000
  outer loop
   vertex -3.03609846193264 3.33591736699903 14.21195256433855
   vertex -1.20089429712141 2.82786574484620 12.33923256433856
   vertex -1.20089429712141 2.82786574484620 14.21195256433855
  endloop
 endfacet
 facet normal -0.09064421665197 -0.99588333954713 0.00000000000000
  outer loop
   vertex -1.20089429712141 2.82786574484620 12.33923256433856
   vertex 0.74320863870850 2.65091561352939 12.33923256433854
   vertex -1.20089429712141 2.82786574484620 14.21195256433855
  endloop
 endfacet
 facet normal 1.00000000000000 0.00000000000000 0.00000000000000
  outer loop
   vertex 11.51135141668090 24.17574369661955 14.21195256433855
   vertex 11.51135141668090 2.65095820910599 14.21195256433855
   vertex 11.51135141668090 24.17574369661955 12.33923256433854
  endloop
 endfacet
 facet normal 1.00000000000000 0.00000000000000 0.00000000000000
  outer loop
   vertex 11.51135141668090 2.65095820910599 12.33923256433854
   vertex 11.51135141668090 24.17574369661955 12.33923256433854
   vertex 11.51135141668090 2.65095820910599 14.21195256433855
  endloop
 endfacet
 facet normal 0.00000000000000 1.00000000000000 0.00000000000000
  outer loop
   vertex 11.51135141668090 24.17574369661955 14.21195256433855
   vertex 11.51135141668090 24.17574369661955 12.33923256433854
   vertex 1.23969684874618 24.17574369661955 14.21195256433855
  endloop
 endfacet
 facet normal 0.00000000000000 1.00000000000000 0.00000000000000
  outer loop
   vertex 1.23969684874618 24.17574369661955 12.33923256433854
   vertex 1.23969684874618 24.17574369661955 14.21195256433855
   vertex 11.51135141668090 24.17574369661955 12.33923256433854
  endloop
 endfacet
 facet normal -0.00000000000000 0.00000000000010 -1.00000000000000
  outer loop
   vertex 0.74320863870850 2.65091561352939 12.33923256433854
   vertex -1.20089429712141 2.82786574484620 12.33923256433856
   vertex 0.77349639944254 2.65095820910601 12.33923256433854
  endloop
 endfacet
 facet normal -0.00000000000000 -0.00000000000000 -1.00000000000000
  outer loop
   vertex 11.51135141668090 24.17574369661955 12.33923256433854
   vertex 11.51135141668090 2.65095820910599 12.33923256433854
   vertex 1.23969684874618 24.17574369661955 12.33923256433854
  endloop
 endfacet
 facet normal 0.00000000000000 0.00000000000000 -1.00000000000000
  outer loop
   vertex 11.51135141668090 2.65095820910599 12.33923256433854
   vertex 0.77349639944254 2.65095820910601 12.33923256433854
   vertex 1.23969684874618 24.17574369661955 12.33923256433854
  endloop
 endfacet
 facet normal 0.00000000000000 -0.00000000000000 -1.00000000000000
  outer loop
   vertex 1.23969684874618 24.17574369661955 12.33923256433854
   vertex 0.77349639944254 2.65095820910601 12.33923256433854
   vertex -1.35483164637584 23.98082942391575 12.33923256433853
  endloop
 endfacet
 facet normal 0.00000000000000 -0.00000000000000 -1.00000000000000
  outer loop
   vertex -1.35483164637584 23.98082942391575 12.33923256433853
   vertex 0.77349639944254 2.65095820910601 12.33923256433854
   vertex -3.79850166253619 23.18254405768540 12.33923256433853
  endloop
 endfacet
 facet normal -0.00000000000000 -0.00000000000000 -1.00000000000000
  outer loop
   vertex -3.79850166253619 23.18254405768540 12.33923256433853
   vertex 0.77349639944254 2.65095820910601 12.33923256433854
   vertex -5.90395908700068 21.89065524322685 12.33923256433853
  endloop
 endfacet
 facet normal -0.00000000000000 -0.00000000000000 -1.00000000000000
  outer loop
   vertex -5.90395908700068 21.89065524322685 12.33923256433853
   vertex 0.77349639944254 2.65095820910601 12.33923256433854
   vertex -7.56142886573782 20.27367704577081 12.33923256433854
  endloop
 endfacet
 facet normal 0.00000000000000 0.00000000000000 -1.00000000000000
  outer loop
   vertex -7.56142886573782 20.27367704577081 12.33923256433854
   vertex 0.77349639944254 2.65095820910601 12.33923256433854
   vertex -8.67007384110755 18.64810447683026 12.33923256433854
  endloop
 endfacet
 facet normal -0.00000000000000 -0.00000000000000 -1.00000000000000
  outer loop
   vertex -8.67007384110755 18.64810447683026 12.33923256433854
   vertex 0.77349639944254 2.65095820910601 12.33923256433854
   vertex -9.50149604274748 16.73550929922346 12.33923256433854
  endloop
 endfacet
 facet normal 0.00000000000000 0.00000000000000 -1.00000000000000
  outer loop
   vertex -9.50149604274748 16.73550929922346 12.33923256433854
   vertex 0.77349639944254 2.65095820910601 12.33923256433854
   vertex -9.95865137829648 14.61196434265755 12.33923256433854
  endloop
 endfacet
 facet normal 0.00000000000000 -0.00000000000000 -1.00000000000000
  outer loop
   vertex -9.95865137829648 14.61196434265755 12.33923256433854
   vertex 0.77349639944254 2.65095820910601 12.33923256433854
   vertex -9.97600615318618 12.39373941604382 12.33923256433854
  endloop
 endfacet
 facet normal 0.00000000000000 0.00000000000000 -1.00000000000000
  outer loop
   vertex -9.97600615318618 12.39373941604382 12.33923256433854
   vertex 0.77349639944254 2.65095820910601 12.33923256433854
   vertex -9.53845737194181 10.21902700349510 12.33923256433854
  endloop
 endfacet
 facet normal -0.00000000000000 -0.00000000000000 -1.00000000000000
  outer loop
   vertex -9.53845737194181 10.21902700349510 12.33923256433854
   vertex 0.77349639944254 2.65095820910601 12.33923256433854
   vertex -8.68703130741718 8.22065070258840 12.33923256433854
  endloop
 endfacet
 facet normal 0.00000000000000 0.00000000000000 -1.00000000000000
  outer loop
   vertex -8.68703130741718 8.22065070258840 12.33923256433854
   vertex 0.77349639944254 2.65095820910601 12.33923256433854
   vertex -7.50811460356323 6.50034881159405 12.33923256433854
  endloop
 endfacet
 facet normal 0.00000000000000 0.00000000000000 -1.00000000000000
  outer loop
   vertex -7.50811460356323 6.50034881159405 12.33923256433854
   vertex 0.77349639944254 2.65095820910601 12.33923256433854
   vertex -6.11141279353292 5.11441810908306 12.33923256433854
  endloop
 endfacet
 facet normal -0.00000000000001 -0.00000000000003 -1.00000000000000
  outer loop
   vertex -6.11141279353292 5.11441810908306 12.33923256433854
   vertex 0.77349639944254 2.65095820910601 12.33923256433854
   vertex -3.03609846193264 3.33591736699903 12.33923256433856
  endloop
 endfacet
 facet normal -0.00000000000001 -0.00000000000004 -1.00000000000000
  outer loop
   vertex -3.03609846193264 3.33591736699903 12.33923256433856
   vertex 0.77349639944254 2.65095820910601 12.33923256433854
   vertex -1.20089429712141 2.82786574484620 12.33923256433856
  endloop
 endfacet
 facet normal -0.00000000000000 -1.00000000000000 -0.00000000000000
  outer loop
   vertex 11.51135141668090 2.65095820910599 14.21195256433855
   vertex 0.77349639944254 2.65095820910601 14.21195256433855
   vertex 11.51135141668090 2.65095820910599 12.33923256433854
  endloop
 endfacet
 facet normal 0.00140636129776 -0.99999901107346 0.00000000000000
  outer loop
   vertex 0.74320863870850 2.65091561352939 14.21195256433855
   vertex 0.74320863870850 2.65091561352939 12.33923256433854
   vertex 0.77349639944254 2.65095820910601 14.21195256433855
  endloop
 endfacet
 facet normal 0.00140636129776 -0.99999901107346 0.00000000000000
  outer loop
   vertex 0.74320863870850 2.65091561352939 12.33923256433854
   vertex 0.77349639944254 2.65095820910601 12.33923256433854
   vertex 0.77349639944254 2.65095820910601 14.21195256433855
  endloop
 endfacet
 facet normal -0.00000000000000 -1.00000000000000 0.00000000000000
  outer loop
   vertex 0.77349639944254 2.65095820910601 12.33923256433854
   vertex 11.51135141668090 2.65095820910599 12.33923256433854
   vertex 0.77349639944254 2.65095820910601 14.21195256433855
  endloop
 endfacet
 facet normal 0.00000000000002 -0.00000000000011 1.00000000000000
  outer loop
   vertex 1.84554074476339 4.11966736711469 14.21195256433853
   vertex 3.73103309221612 4.49902551760533 14.21195256433853
   vertex 0.87932968766404 4.07756847274117 14.21195256433854
  endloop
 endfacet
 facet normal -0.00000000000000 0.00000000000000 1.00000000000000
  outer loop
   vertex 0.77349639944254 2.65095820910601 14.21195256433855
   vertex 11.51135141668090 2.65095820910599 14.21195256433855
   vertex 0.87932968766404 2.68259100762286 14.21195256433855
  endloop
 endfacet
 facet normal -0.00000000000000 0.00000000000000 1.00000000000000
  outer loop
   vertex 0.87932968766404 2.68259100762286 14.21195256433855
   vertex 11.51135141668090 2.65095820910599 14.21195256433855
   vertex 11.40341682486962 2.68259100762286 14.21195256433855
  endloop
 endfacet
 facet normal 0.00000000000000 -0.00000000000000 1.00000000000000
  outer loop
   vertex 11.51135141668090 2.65095820910599 14.21195256433855
   vertex 11.51135141668090 24.17574369661955 14.21195256433855
   vertex 11.40341682486962 2.68259100762286 14.21195256433855
  endloop
 endfacet
 facet normal 0.00000000000000 0.00000000000000 1.00000000000000
  outer loop
   vertex 11.40341682486962 2.68259100762286 14.21195256433855
   vertex 11.51135141668090 24.17574369661955 14.21195256433855
   vertex 11.40341682486962 24.14406830252606 14.21195256433855
  endloop
 endfacet
 facet normal 0.00000000000000 0.00000000000000 1.00000000000000
  outer loop
   vertex 11.51135141668090 24.17574369661955 14.21195256433855
   vertex 1.23969684874618 24.17574369661955 14.21195256433855
   vertex 11.40341682486962 24.14406830252606 14.21195256433855
  endloop
 endfacet
 facet normal 0.00000000000000 0.00000000000000 1.00000000000000
  outer loop
   vertex 11.40341682486962 24.14406830252606 14.21195256433855
   vertex 1.23969684874618 24.17574369661955 14.21195256433855
   vertex 0.87932968766404 24.14406830252606 14.21195256433855
  endloop
 endfacet
 facet normal -0.00000000000001 0.00000000000016 1.00000000000000
  outer loop
   vertex 1.23969684874618 24.17574369661955 14.21195256433855
   vertex -1.35483164637584 23.98082942391575 14.21195256433855
   vertex 0.87932968766404 24.14406830252606 14.21195256433855
  endloop
 endfacet
 facet normal -0.00000000000000 0.00000000000000 1.00000000000000
  outer loop
   vertex 0.87932968766404 24.14406830252606 14.21195256433855
   vertex -1.35483164637584 23.98082942391575 14.21195256433855
   vertex 0.87932968766403 22.74904919986312 14.21195256433855
  endloop
 endfacet
 facet normal -0.00000000000000 0.00000000000001 1.00000000000000
  outer loop
   vertex 0.87932968766404 2.68259100762286 14.21195256433855
   vertex 0.87932968766404 4.07756847274117 14.21195256433854
   vertex 0.77349639944254 2.65095820910601 14.21195256433855
  endloop
 endfacet
 facet normal -0.00000000000000 0.00000000000001 1.00000000000000
  outer loop
   vertex 0.77349639944254 2.65095820910601 14.21195256433855
   vertex 0.87932968766404 4.07756847274117 14.21195256433854
   vertex 0.74320863870850 2.65091561352939 14.21195256433855
  endloop
 endfacet
 facet normal 0.00000000000000 0.00000000000001 1.00000000000000
  outer loop
   vertex 0.74320863870850 2.65091561352939 14.21195256433855
   vertex 0.87932968766404 4.07756847274117 14.21195256433854
   vertex -1.20089429712141 2.82786574484620 14.21195256433855
  endloop
 endfacet
 facet normal 0.00000000000000 0.00000000000001 1.00000000000000
  outer loop
   vertex -1.20089429712141 2.82786574484620 14.21195256433855
   vertex 0.87932968766404 4.07756847274117 14.21195256433854
   vertex -3.03609846193264 3.33591736699903 14.21195256433855
  endloop
 endfacet
 facet normal 0.00000000000000 0.00000000000000 1.00000000000000
  outer loop
   vertex -1.35483164637584 23.98082942391575 14.21195256433855
   vertex -3.79850166253619 23.18254405768540 14.21195256433855
   vertex 0.87932968766403 22.74904919986312 14.21195256433855
  endloop
 endfacet
 facet normal 0.00000000000000 0.00000000000000 1.00000000000000
  outer loop
   vertex -3.03609846193264 3.33591736699903 14.21195256433855
   vertex 0.87932968766404 4.07756847274117 14.21195256433854
   vertex -6.11141279353292 5.11441810908306 14.21195256433855
  endloop
 endfacet
 facet normal -0.00000000000000 0.00000000000000 1.00000000000000
  outer loop
   vertex -3.79850166253619 23.18254405768540 14.21195256433855
   vertex -5.90395908700068 21.89065524322685 14.21195256433855
   vertex 0.87932968766403 22.74904919986312 14.21195256433855
  endloop
 endfacet
 facet normal 0.00000000000000 -0.00000000000000 1.00000000000000
  outer loop
   vertex -5.90395908700068 21.89065524322685 14.21195256433855
   vertex -7.56142886573782 20.27367704577081 14.21195256433855
   vertex 0.87932968766403 22.74904919986312 14.21195256433855
  endloop
 endfacet
 facet normal 0.00000000000000 -0.00000000000000 1.00000000000000
  outer loop
   vertex -7.56142886573782 20.27367704577081 14.21195256433855
   vertex -8.67007384110755 18.64810447683026 14.21195256433855
   vertex 0.87932968766403 22.74904919986312 14.21195256433855
  endloop
 endfacet
 facet normal -0.00000000000000 0.00000000000000 1.00000000000000
  outer loop
   vertex -8.67007384110755 18.64810447683026 14.21195256433855
   vertex -9.50149604274748 16.73550929922346 14.21195256433855
   vertex 0.87932968766403 22.74904919986312 14.21195256433855
  endloop
 endfacet
 facet normal -0.00000000000000 0.00000000000000 1.00000000000000
  outer loop
   vertex -9.50149604274748 16.73550929922346 14.21195256433855
   vertex -9.95865137829648 14.61196434265755 14.21195256433855
   vertex 0.87932968766403 22.74904919986312 14.21195256433855
  endloop
 endfacet
 facet normal -0.00000000000000 0.00000000000000 1.00000000000000
  outer loop
   vertex -9.95865137829648 14.61196434265755 14.21195256433855
   vertex -9.97600615318618 12.39373941604382 14.21195256433855
   vertex 0.87932968766403 22.74904919986312 14.21195256433855
  endloop
 endfacet
 facet normal -0.00000000000000 0.00000000000000 1.00000000000000
  outer loop
   vertex -9.97600615318618 12.39373941604382 14.21195256433855
   vertex -9.53845737194181 10.21902700349510 14.21195256433855
   vertex 0.87932968766403 22.74904919986312 14.21195256433855
  endloop
 endfacet
 facet normal 0.00000000000000 0.00000000000000 1.00000000000000
  outer loop
   vertex -9.53845737194181 10.21902700349510 14.21195256433855
   vertex -8.68703130741718 8.22065070258840 14.21195256433855
   vertex 0.87932968766403 22.74904919986312 14.21195256433855
  endloop
 endfacet
 facet normal 0.00000000000000 -0.00000000000000 1.00000000000000
  outer loop
   vertex -8.68703130741718 8.22065070258840 14.21195256433855
   vertex -7.50811460356323 6.50034881159405 14.21195256433855
   vertex 0.87932968766403 22.74904919986312 14.21195256433855
  endloop
 endfacet
 facet normal -0.00000000000000 0.00000000000000 1.00000000000000
  outer loop
   vertex -7.50811460356323 6.50034881159405 14.21195256433855
   vertex -6.11141279353292 5.11441810908306 14.21195256433855
   vertex 0.87932968766403 22.74904919986312 14.21195256433855
  endloop
 endfacet
 facet normal 0.00000000000000 -0.00000000000000 1.00000000000000
  outer loop
   vertex -6.11141279353292 5.11441810908306 14.21195256433855
   vertex 0.87932968766404 4.07756847274117 14.21195256433854
   vertex 0.87932968766403 22.74904919986312 14.21195256433855
  endloop
 endfacet
 facet normal 0.00000000000001 -0.00000000000000 1.00000000000000
  outer loop
   vertex 0.87932968766403 22.74904919986312 14.21195256433855
   vertex 0.87932968766404 4.07756847274117 14.21195256433854
   vertex 1.99084475557371 22.69190358250340 14.21195256433854
  endloop
 endfacet
 facet normal 0.00000000000000 -0.00000000000000 1.00000000000000
  outer loop
   vertex 1.99084475557371 22.69190358250340 14.21195256433854
   vertex 0.87932968766404 4.07756847274117 14.21195256433854
   vertex 3.83197452610016 22.29554639899673 14.21195256433854
  endloop
 endfacet
 facet normal -0.00000000000000 0.00000000000000 1.00000000000000
  outer loop
   vertex 3.83197452610016 22.29554639899673 14.21195256433854
   vertex 0.87932968766404 4.07756847274117 14.21195256433854
   vertex 5.49020921972857 21.57469697097643 14.21195256433854
  endloop
 endfacet
 facet normal 0.00000000000000 0.00000000000000 1.00000000000000
  outer loop
   vertex 5.49020921972857 21.57469697097643 14.21195256433854
   vertex 0.87932968766404 4.07756847274117 14.21195256433854
   vertex 6.89959310942383 20.61349327110344 14.21195256433854
  endloop
 endfacet
 facet normal 0.00000000000000 0.00000000000000 1.00000000000000
  outer loop
   vertex 6.89959310942383 20.61349327110344 14.21195256433854
   vertex 0.87932968766404 4.07756847274117 14.21195256433854
   vertex 8.11054429510228 19.41188071828700 14.21195256433854
  endloop
 endfacet
 facet normal 0.00000000000000 0.00000000000000 1.00000000000000
  outer loop
   vertex 8.11054429510228 19.41188071828700 14.21195256433854
   vertex 0.87932968766404 4.07756847274117 14.21195256433854
   vertex 9.13267412274037 17.92036577954766 14.21195256433854
  endloop
 endfacet
 facet normal 0.00000000000000 -0.00000000000000 1.00000000000000
  outer loop
   vertex 9.13267412274037 17.92036577954766 14.21195256433854
   vertex 0.87932968766404 4.07756847274117 14.21195256433854
   vertex 9.87086705336402 16.18775819385106 14.21195256433854
  endloop
 endfacet
 facet normal -0.00000000000000 0.00000000000000 1.00000000000000
  outer loop
   vertex 9.87086705336402 16.18775819385106 14.21195256433854
   vertex 0.87932968766404 4.07756847274117 14.21195256433854
   vertex 10.25022520385467 14.30226584639833 14.21195256433854
  endloop
 endfacet
 facet normal 0.00000000000000 -0.00000000000000 1.00000000000000
  outer loop
   vertex 10.25022520385467 14.30226584639833 14.21195256433854
   vertex 0.87932968766404 4.07756847274117 14.21195256433854
   vertex 10.23517848086845 12.37904781539563 14.21195256433854
  endloop
 endfacet
 facet normal -0.00000000000000 0.00000000000000 1.00000000000000
  outer loop
   vertex 10.23517848086845 12.37904781539563 14.21195256433854
   vertex 0.87932968766404 4.07756847274117 14.21195256433854
   vertex 9.83882129736178 10.53791804486918 14.21195256433854
  endloop
 endfacet
 facet normal -0.00000000000000 0.00000000000000 1.00000000000000
  outer loop
   vertex 9.83882129736178 10.53791804486918 14.21195256433854
   vertex 0.87932968766404 4.07756847274117 14.21195256433854
   vertex 9.11797186934148 8.87968335124078 14.21195256433854
  endloop
 endfacet
 facet normal 0.00000000000000 -0.00000000000000 1.00000000000000
  outer loop
   vertex 9.11797186934148 8.87968335124078 14.21195256433854
   vertex 0.87932968766404 4.07756847274117 14.21195256433854
   vertex 8.15676816946850 7.47029946154552 14.21195256433854
  endloop
 endfacet
 facet normal -0.00000000000000 0.00000000000000 1.00000000000000
  outer loop
   vertex 8.15676816946850 7.47029946154552 14.21195256433854
   vertex 0.87932968766404 4.07756847274117 14.21195256433854
   vertex 6.95515561665207 6.25934827586707 14.21195256433854
  endloop
 endfacet
 facet normal 0.00000000000000 -0.00000000000000 1.00000000000000
  outer loop
   vertex 6.95515561665207 6.25934827586707 14.21195256433854
   vertex 0.87932968766404 4.07756847274117 14.21195256433854
   vertex 5.46364067791272 5.23721844822898 14.21195256433854
  endloop
 endfacet
 facet normal 0.00000000000000 -0.00000000000001 1.00000000000000
  outer loop
   vertex 5.46364067791272 5.23721844822898 14.21195256433854
   vertex 0.87932968766404 4.07756847274117 14.21195256433854
   vertex 3.73103309221612 4.49902551760533 14.21195256433853
  endloop
 endfacet
 facet normal -0.56344091689605 -0.82615636120975 -0.00000000000000
  outer loop
   vertex 6.89959310942383 20.61349327110344 81.05714256433851
   vertex 5.49020921972857 21.57469697097643 81.05714256433851
   vertex 6.89959310942383 20.61349327110344 14.21195256433854
  endloop
 endfacet
 facet normal -0.05134455110969 -0.99868099865340 0.00000000000000
  outer loop
   vertex 0.87932968766404 22.74904919986312 81.05714256433851
   vertex 0.87932968766403 22.74904919986312 14.21195256433855
   vertex 1.99084475557371 22.69190358250339 81.05714256433851
  endloop
 endfacet
 facet normal -0.05134455110968 -0.99868099865340 -0.00000000000000
  outer loop
   vertex 0.87932968766403 22.74904919986312 14.21195256433855
   vertex 1.99084475557371 22.69190358250340 14.21195256433854
   vertex 1.99084475557371 22.69190358250339 81.05714256433851
  endloop
 endfacet
 facet normal -0.21045771077295 -0.97760296234014 -0.00000000000000
  outer loop
   vertex 1.99084475557371 22.69190358250340 14.21195256433854
   vertex 3.83197452610016 22.29554639899673 14.21195256433854
   vertex 1.99084475557371 22.69190358250339 81.05714256433851
  endloop
 endfacet
 facet normal -0.21045771077294 -0.97760296234014 -0.00000000000000
  outer loop
   vertex 1.99084475557371 22.69190358250339 81.05714256433851
   vertex 3.83197452610016 22.29554639899673 14.21195256433854
   vertex 3.83197452610016 22.29554639899672 81.05714256433851
  endloop
 endfacet
 facet normal -0.39866928218502 -0.91709476252025 -0.00000000000000
  outer loop
   vertex 3.83197452610016 22.29554639899673 14.21195256433854
   vertex 5.49020921972857 21.57469697097643 14.21195256433854
   vertex 3.83197452610016 22.29554639899672 81.05714256433851
  endloop
 endfacet
 facet normal -0.39866928218502 -0.91709476252025 0.00000000000000
  outer loop
   vertex 3.83197452610016 22.29554639899672 81.05714256433851
   vertex 5.49020921972857 21.57469697097643 14.21195256433854
   vertex 5.49020921972857 21.57469697097643 81.05714256433851
  endloop
 endfacet
 facet normal -0.56344091689605 -0.82615636120975 0.00000000000000
  outer loop
   vertex 5.49020921972857 21.57469697097643 14.21195256433854
   vertex 6.89959310942383 20.61349327110344 14.21195256433854
   vertex 5.49020921972857 21.57469697097643 81.05714256433851
  endloop
 endfacet
 facet normal -1.00000000000000 0.00000000000001 0.00000000000000
  outer loop
   vertex 0.87932968766403 22.74904919986312 14.21195256433855
   vertex 0.87932968766404 22.74904919986312 81.05714256433851
   vertex 0.87932968766404 24.14406830252606 14.21195256433855
  endloop
 endfacet
 facet normal -1.00000000000000 -0.00000000000000 -0.00000000000000
  outer loop
   vertex 0.87932968766404 24.14406830252606 81.05714256433851
   vertex 0.87932968766404 24.14406830252606 14.21195256433855
   vertex 0.87932968766404 22.74904919986312 81.05714256433851
  endloop
 endfacet
 facet normal 0.00000000000000 1.00000000000000 0.00000000000000
  outer loop
   vertex 0.87932968766404 24.14406830252606 14.21195256433855
   vertex 0.87932968766404 24.14406830252606 81.05714256433851
   vertex 11.40341682486962 24.14406830252606 14.21195256433855
  endloop
 endfacet
 facet normal 0.00000000000000 1.00000000000000 0.00000000000000
  outer loop
   vertex 11.40341682486962 24.14406830252606 81.05714256433851
   vertex 11.40341682486962 24.14406830252606 14.21195256433855
   vertex 0.87932968766404 24.14406830252606 81.05714256433851
  endloop
 endfacet
 facet normal 1.00000000000000 0.00000000000000 -0.00000000000000
  outer loop
   vertex 11.40341682486962 24.14406830252606 14.21195256433855
   vertex 11.40341682486962 24.14406830252606 81.05714256433851
   vertex 11.40341682486962 2.68259100762286 14.21195256433855
  endloop
 endfacet
 facet normal 1.00000000000000 -0.00000000000000 0.00000000000000
  outer loop
   vertex 11.40341682486962 2.68259100762286 81.05714256433851
   vertex 11.40341682486962 2.68259100762286 14.21195256433855
   vertex 11.40341682486962 24.14406830252606 81.05714256433851
  endloop
 endfacet
 facet normal 0.00000000000000 -1.00000000000000 0.00000000000000
  outer loop
   vertex 11.40341682486962 2.68259100762286 14.21195256433855
   vertex 11.40341682486962 2.68259100762286 81.05714256433851
   vertex 0.87932968766404 2.68259100762286 14.21195256433855
  endloop
 endfacet
 facet normal 0.00000000000000 -1.00000000000000 0.00000000000000
  outer loop
   vertex 0.87932968766404 2.68259100762286 81.05714256433851
   vertex 0.87932968766404 2.68259100762286 14.21195256433855
   vertex 11.40341682486962 2.68259100762286 81.05714256433851
  endloop
 endfacet
 facet normal -1.00000000000000 0.00000000000000 0.00000000000000
  outer loop
   vertex 0.87932968766404 2.68259100762286 81.05714256433851
   vertex 0.87932968766404 4.07756847274118 81.05714256433851
   vertex 0.87932968766404 2.68259100762286 14.21195256433855
  endloop
 endfacet
 facet normal -1.00000000000000 0.00000000000000 0.00000000000000
  outer loop
   vertex 0.87932968766404 4.07756847274117 14.21195256433854
   vertex 0.87932968766404 2.68259100762286 14.21195256433855
   vertex 0.87932968766404 4.07756847274118 81.05714256433851
  endloop
 endfacet
 facet normal -0.00000000000000 0.00000000000000 1.00000000000000
  outer loop
   vertex 9.87086705336403 16.18775819385106 81.05714256433851
   vertex 10.25022520385467 14.30226584639833 81.05714256433851
   vertex 11.40341682486962 24.14406830252606 81.05714256433851
  endloop
 endfacet
 facet normal 0.00000000000000 0.00000000000000 1.00000000000000
  outer loop
   vertex 0.87932968766404 2.68259100762286 81.05714256433851
   vertex 11.40341682486962 2.68259100762286 81.05714256433851
   vertex 0.87932968766404 4.07756847274118 81.05714256433851
  endloop
 endfacet
 facet normal -0.00000000000000 0.00000000000000 1.00000000000000
  outer loop
   vertex 0.87932968766404 4.07756847274118 81.05714256433851
   vertex 11.40341682486962 2.68259100762286 81.05714256433851
   vertex 1.84554074476340 4.11966736711469 81.05714256433851
  endloop
 endfacet
 facet normal -0.00000000000000 0.00000000000000 1.00000000000000
  outer loop
   vertex 1.84554074476340 4.11966736711469 81.05714256433851
   vertex 11.40341682486962 2.68259100762286 81.05714256433851
   vertex 3.73103309221613 4.49902551760533 81.05714256433851
  endloop
 endfacet
 facet normal -0.00000000000000 0.00000000000000 1.00000000000000
  outer loop
   vertex 3.73103309221613 4.49902551760533 81.05714256433851
   vertex 11.40341682486962 2.68259100762286 81.05714256433851
   vertex 5.46364067791274 5.23721844822899 81.05714256433851
  endloop
 endfacet
 facet normal -0.00000000000000 0.00000000000000 1.00000000000000
  outer loop
   vertex 5.46364067791274 5.23721844822899 81.05714256433851
   vertex 11.40341682486962 2.68259100762286 81.05714256433851
   vertex 6.95515561665208 6.25934827586707 81.05714256433851
  endloop
 endfacet
 facet normal -0.00000000000000 0.00000000000000 1.00000000000000
  outer loop
   vertex 6.95515561665208 6.25934827586707 81.05714256433851
   vertex 11.40341682486962 2.68259100762286 81.05714256433851
   vertex 8.15676816946850 7.47029946154552 81.05714256433851
  endloop
 endfacet
 facet normal -0.00000000000000 0.00000000000000 1.00000000000000
  outer loop
   vertex 0.87932968766404 24.14406830252606 81.05714256433851
   vertex 0.87932968766404 22.74904919986312 81.05714256433851
   vertex 11.40341682486962 24.14406830252606 81.05714256433851
  endloop
 endfacet
 facet normal -0.00000000000000 0.00000000000000 1.00000000000000
  outer loop
   vertex 0.87932968766404 22.74904919986312 81.05714256433851
   vertex 1.99084475557371 22.69190358250339 81.05714256433851
   vertex 11.40341682486962 24.14406830252606 81.05714256433851
  endloop
 endfacet
 facet normal -0.00000000000000 0.00000000000000 1.00000000000000
  outer loop
   vertex 1.99084475557371 22.69190358250339 81.05714256433851
   vertex 3.83197452610016 22.29554639899672 81.05714256433851
   vertex 11.40341682486962 24.14406830252606 81.05714256433851
  endloop
 endfacet
 facet normal -0.00000000000000 0.00000000000000 1.00000000000000
  outer loop
   vertex 3.83197452610016 22.29554639899672 81.05714256433851
   vertex 5.49020921972857 21.57469697097643 81.05714256433851
   vertex 11.40341682486962 24.14406830252606 81.05714256433851
  endloop
 endfacet
 facet normal -0.00000000000000 0.00000000000000 1.00000000000000
  outer loop
   vertex 5.49020921972857 21.57469697097643 81.05714256433851
   vertex 6.89959310942383 20.61349327110344 81.05714256433851
   vertex 11.40341682486962 24.14406830252606 81.05714256433851
  endloop
 endfacet
 facet normal -0.00000000000000 0.00000000000000 1.00000000000000
  outer loop
   vertex 6.89959310942383 20.61349327110344 81.05714256433851
   vertex 8.11054429510228 19.41188071828701 81.05714256433851
   vertex 11.40341682486962 24.14406830252606 81.05714256433851
  endloop
 endfacet
 facet normal -0.00000000000000 0.00000000000000 1.00000000000000
  outer loop
   vertex 8.11054429510228 19.41188071828701 81.05714256433851
   vertex 9.13267412274037 17.92036577954766 81.05714256433851
   vertex 11.40341682486962 24.14406830252606 81.05714256433851
  endloop
 endfacet
 facet normal -0.00000000000001 -0.00000000000001 1.00000000000000
  outer loop
   vertex 8.15676816946850 7.47029946154552 81.05714256433851
   vertex 11.40341682486962 2.68259100762286 81.05714256433851
   vertex 9.11797186934148 8.87968335124078 81.05714256433852
  endloop
 endfacet
 facet normal 0.00000000000001 0.00000000000000 1.00000000000000
  outer loop
   vertex 9.11797186934148 8.87968335124078 81.05714256433852
   vertex 11.40341682486962 2.68259100762286 81.05714256433851
   vertex 9.83882129736178 10.53791804486918 81.05714256433851
  endloop
 endfacet
 facet normal -0.00000000000000 0.00000000000000 1.00000000000000
  outer loop
   vertex 9.13267412274037 17.92036577954766 81.05714256433851
   vertex 9.87086705336403 16.18775819385106 81.05714256433851
   vertex 11.40341682486962 24.14406830252606 81.05714256433851
  endloop
 endfacet
 facet normal -0.00000000000000 0.00000000000000 1.00000000000000
  outer loop
   vertex 9.83882129736178 10.53791804486918 81.05714256433851
   vertex 11.40341682486962 2.68259100762286 81.05714256433851
   vertex 10.23517848086845 12.37904781539563 81.05714256433851
  endloop
 endfacet
 facet normal 0.00000000000000 -0.00000000000000 1.00000000000000
  outer loop
   vertex 11.40341682486962 2.68259100762286 81.05714256433851
   vertex 11.40341682486962 24.14406830252606 81.05714256433851
   vertex 10.23517848086845 12.37904781539563 81.05714256433851
  endloop
 endfacet
 facet normal 0.00000000000000 0.00000000000000 1.00000000000000
  outer loop
   vertex 10.23517848086845 12.37904781539563 81.05714256433851
   vertex 11.40341682486962 24.14406830252606 81.05714256433851
   vertex 10.25022520385467 14.30226584639833 81.05714256433851
  endloop
 endfacet
 facet normal -0.70436441162488 -0.70983855603675 0.00000000000000
  outer loop
   vertex 6.89959310942383 20.61349327110344 14.21195256433854
   vertex 8.11054429510228 19.41188071828700 14.21195256433854
   vertex 6.89959310942383 20.61349327110344 81.05714256433851
  endloop
 endfacet
 facet normal -0.04352981650768 0.99905212830703 -0.00000000000000
  outer loop
   vertex 0.87932968766404 4.07756847274118 81.05714256433851
   vertex 1.84554074476340 4.11966736711469 81.05714256433851
   vertex 0.87932968766404 4.07756847274117 14.21195256433854
  endloop
 endfacet
 facet normal -0.04352981650769 0.99905212830703 -0.00000000000000
  outer loop
   vertex 0.87932968766404 4.07756847274117 14.21195256433854
   vertex 1.84554074476340 4.11966736711469 81.05714256433851
   vertex 1.84554074476339 4.11966736711469 14.21195256433853
  endloop
 endfacet
 facet normal -0.19724572801103 0.98035408031048 0.00000000000000
  outer loop
   vertex 1.84554074476339 4.11966736711469 14.21195256433853
   vertex 1.84554074476340 4.11966736711469 81.05714256433851
   vertex 3.73103309221612 4.49902551760533 14.21195256433853
  endloop
 endfacet
 facet normal -0.19724572801103 0.98035408031048 0.00000000000000
  outer loop
   vertex 1.84554074476340 4.11966736711469 81.05714256433851
   vertex 3.73103309221613 4.49902551760533 81.05714256433851
   vertex 3.73103309221612 4.49902551760533 14.21195256433853
  endloop
 endfacet
 facet normal -0.39196563290043 0.91997985990181 0.00000000000000
  outer loop
   vertex 3.73103309221612 4.49902551760533 14.21195256433853
   vertex 3.73103309221613 4.49902551760533 81.05714256433851
   vertex 5.46364067791272 5.23721844822898 14.21195256433854
  endloop
 endfacet
 facet normal -0.39196563290044 0.91997985990181 0.00000000000000
  outer loop
   vertex 3.73103309221613 4.49902551760533 81.05714256433851
   vertex 5.46364067791274 5.23721844822899 81.05714256433851
   vertex 5.46364067791272 5.23721844822898 14.21195256433854
  endloop
 endfacet
 facet normal -0.56529387254074 0.82488959119866 0.00000000000000
  outer loop
   vertex 5.46364067791272 5.23721844822898 14.21195256433854
   vertex 5.46364067791274 5.23721844822899 81.05714256433851
   vertex 6.95515561665207 6.25934827586707 14.21195256433854
  endloop
 endfacet
 facet normal -0.56529387254074 0.82488959119866 0.00000000000000
  outer loop
   vertex 5.46364067791274 5.23721844822899 81.05714256433851
   vertex 6.95515561665208 6.25934827586707 81.05714256433851
   vertex 6.95515561665207 6.25934827586707 14.21195256433854
  endloop
 endfacet
 facet normal -0.70983855603675 0.70436441162488 0.00000000000000
  outer loop
   vertex 6.95515561665207 6.25934827586707 14.21195256433854
   vertex 6.95515561665208 6.25934827586707 81.05714256433851
   vertex 8.15676816946850 7.47029946154552 14.21195256433854
  endloop
 endfacet
 facet normal -0.70983855603675 0.70436441162488 -0.00000000000000
  outer loop
   vertex 6.95515561665208 6.25934827586707 81.05714256433851
   vertex 8.15676816946850 7.47029946154552 81.05714256433851
   vertex 8.15676816946850 7.47029946154552 14.21195256433854
  endloop
 endfacet
 facet normal -0.82615636120975 0.56344091689605 0.00000000000000
  outer loop
   vertex 8.15676816946850 7.47029946154552 14.21195256433854
   vertex 8.15676816946850 7.47029946154552 81.05714256433851
   vertex 9.11797186934148 8.87968335124078 14.21195256433854
  endloop
 endfacet
 facet normal -0.82615636120975 0.56344091689605 -0.00000000000000
  outer loop
   vertex 8.15676816946850 7.47029946154552 81.05714256433851
   vertex 9.11797186934148 8.87968335124078 81.05714256433852
   vertex 9.11797186934148 8.87968335124078 14.21195256433854
  endloop
 endfacet
 facet normal -0.91709476252025 0.39866928218502 0.00000000000000
  outer loop
   vertex 9.11797186934148 8.87968335124078 81.05714256433852
   vertex 9.83882129736178 10.53791804486918 81.05714256433851
   vertex 9.11797186934148 8.87968335124078 14.21195256433854
  endloop
 endfacet
 facet normal -0.91709476252025 0.39866928218502 0.00000000000000
  outer loop
   vertex 9.11797186934148 8.87968335124078 14.21195256433854
   vertex 9.83882129736178 10.53791804486918 81.05714256433851
   vertex 9.83882129736178 10.53791804486918 14.21195256433854
  endloop
 endfacet
 facet normal -0.97760296234014 0.21045771077294 0.00000000000000
  outer loop
   vertex 9.83882129736178 10.53791804486918 81.05714256433851
   vertex 10.23517848086845 12.37904781539563 81.05714256433851
   vertex 9.83882129736178 10.53791804486918 14.21195256433854
  endloop
 endfacet
 facet normal -0.97760296234014 0.21045771077294 0.00000000000000
  outer loop
   vertex 9.83882129736178 10.53791804486918 14.21195256433854
   vertex 10.23517848086845 12.37904781539563 81.05714256433851
   vertex 10.23517848086845 12.37904781539563 14.21195256433854
  endloop
 endfacet
 facet normal -0.99996939609294 0.00782348244201 0.00000000000000
  outer loop
   vertex 10.23517848086845 12.37904781539563 14.21195256433854
   vertex 10.23517848086845 12.37904781539563 81.05714256433851
   vertex 10.25022520385467 14.30226584639833 14.21195256433854
  endloop
 endfacet
 facet normal -0.99996939609294 0.00782348244201 -0.00000000000000
  outer loop
   vertex 10.23517848086845 12.37904781539563 81.05714256433851
   vertex 10.25022520385467 14.30226584639833 81.05714256433851
   vertex 10.25022520385467 14.30226584639833 14.21195256433854
  endloop
 endfacet
 facet normal -0.98035408031048 -0.19724572801103 0.00000000000000
  outer loop
   vertex 10.25022520385467 14.30226584639833 81.05714256433851
   vertex 9.87086705336403 16.18775819385106 81.05714256433851
   vertex 10.25022520385467 14.30226584639833 14.21195256433854
  endloop
 endfacet
 facet normal -0.98035408031048 -0.19724572801103 0.00000000000000
  outer loop
   vertex 10.25022520385467 14.30226584639833 14.21195256433854
   vertex 9.87086705336403 16.18775819385106 81.05714256433851
   vertex 9.87086705336402 16.18775819385106 14.21195256433854
  endloop
 endfacet
 facet normal -0.91997985990181 -0.39196563290043 0.00000000000000
  outer loop
   vertex 9.87086705336403 16.18775819385106 81.05714256433851
   vertex 9.13267412274037 17.92036577954766 81.05714256433851
   vertex 9.87086705336402 16.18775819385106 14.21195256433854
  endloop
 endfacet
 facet normal -0.91997985990181 -0.39196563290043 0.00000000000000
  outer loop
   vertex 9.87086705336402 16.18775819385106 14.21195256433854
   vertex 9.13267412274037 17.92036577954766 81.05714256433851
   vertex 9.13267412274037 17.92036577954766 14.21195256433854
  endloop
 endfacet
 facet normal -0.82488959119866 -0.56529387254074 0.00000000000000
  outer loop
   vertex 9.13267412274037 17.92036577954766 14.21195256433854
   vertex 9.13267412274037 17.92036577954766 81.05714256433851
   vertex 8.11054429510228 19.41188071828700 14.21195256433854
  endloop
 endfacet
 facet normal -0.82488959119866 -0.56529387254074 0.00000000000000
  outer loop
   vertex 9.13267412274037 17.92036577954766 81.05714256433851
   vertex 8.11054429510228 19.41188071828701 81.05714256433851
   vertex 8.11054429510228 19.41188071828700 14.21195256433854
  endloop
 endfacet
 facet normal -0.70436441162488 -0.70983855603675 0.00000000000000
  outer loop
   vertex 8.11054429510228 19.41188071828701 81.05714256433851
   vertex 6.89959310942383 20.61349327110344 81.05714256433851
   vertex 8.11054429510228 19.41188071828700 14.21195256433854
  endloop
 endfacet
endsolid STL file created by POPLib
