# Blender 3.4.1
# www.blender.org
mtllib test.mtl
o Cube
v 0.337475 1.455366 1.136496
v 3.488382 -2.367136 -2.414693
v 0.611554 0.657834 3.143058
v 3.488382 -2.367136 -0.378070
v -1.525154 1.009728 -1.210362
v -1.014546 -1.031800 -1.000025
v -1.014546 1.224536 1.036598
v -1.014546 -1.031800 1.036598
v 0.716698 1.698596 -3.730207
v -1.556455 1.514773 -4.323697
v 1.110324 2.794777 -3.757610
v -1.162829 2.610954 -4.351100
v 1.986324 1.531686 -0.071734
v 1.870186 1.034618 1.810228
vn -0.0276 -0.7693 0.6383
vn -1.0000 -0.0000 -0.0000
vn 0.7716 0.6361 -0.0000
vn -0.0383 0.6630 -0.7476
vn 0.2652 -0.9638 -0.0275
vn 0.2597 -0.1172 -0.9585
vn -0.0987 -0.9293 -0.3559
vn 0.1639 -0.9848 0.0569
vn -0.7916 -0.0000 0.6111
vn -0.9482 -0.2129 0.2358
vn 0.7898 0.5994 0.1304
vn 0.7652 0.1263 -0.6313
vn 0.1210 -0.9796 -0.1601
vn 0.1829 -0.9048 -0.3846
vn -0.1471 -0.9540 -0.2611
vt 0.000000 0.000000
vt 0.625000 0.500000
vt 0.375000 0.500000
vt 0.625000 0.750000
vt 0.000000 0.000000
vt 0.375000 0.750000
vt 0.000000 0.000000
vt 0.625000 0.250000
vt 0.375000 0.250000
vt 0.625000 1.000000
vt 0.625000 0.000000
vt 0.000000 0.000000
vt 0.375000 0.000000
vt 0.375000 1.000000
vt 0.625000 0.500000
vt 0.625000 0.250000
vt 0.625000 0.500000
vt 0.625000 0.250000
vt 0.625000 0.500000
vt 0.625000 0.750000
s 0
usemtl Material
f 3/4/1 8/14/1 4/6/1
f 7/11/2 6/9/2 8/13/2
f 1/2/3 4/6/3 2/3/3
f 6/9/4 1/2/4 2/3/4
f 5/8/5 9/15/5 1/2/5
f 9/15/6 12/18/6 11/17/6
f 1/2/7 14/20/7 3/4/7
f 1/1/8 7/12/8 5/7/8
f 3/4/9 7/10/9 8/14/9
f 7/11/10 5/8/10 6/9/10
f 1/2/11 3/4/11 4/6/11
f 6/9/12 5/8/12 1/2/12
f 5/8/13 10/16/13 9/15/13
f 9/15/6 10/16/6 12/18/6
f 1/1/14 3/5/14 7/12/14
f 1/2/15 13/19/15 14/20/15
